<svg viewBox="0 0 24 24" fill="none" xmlns="http://www.w3.org/2000/svg"><path d="M20.46 4.68a2 2 0 00-1.3-.68 18.78 18.78 0 01-6.34-1.83 1.86 1.86 0 00-1.64 0A18.5 18.5 0 014.88 4 2.06 2.06 0 003 6v5c0 6.74 6.75 11 9 11s9-4.25 9-11V6a2 2 0 00-.54-1.32zm-6.54 10.57a1 1 0 01-1 1.25h-1.69a1 1 0 01-1-1.21l.68-3.2a.5.5 0 00-.12-.42l-.09-.08A2.25 2.25 0 019.88 9a.78.78 0 010-.14 2.25 2.25 0 011-1h.14l.14-.06a2.3 2.3 0 01.43-.12h.75a2.28 2.28 0 011.87 2.21 2.25 2.25 0 01-.95 1.83.38.38 0 00-.09.09.49.49 0 00-.12.45l.87 2.99z" fill="currentColor"></path></svg>