<svg viewBox="0 0 24 24" fill="none" xmlns="http://www.w3.org/2000/svg"><path d="M21.45 10.94a2 2 0 00.15-2.58A12.38 12.38 0 0012 4a12.27 12.27 0 00-9.6 4.37 2 2 0 00.15 2.57l8 8.44A1.998 1.998 0 0012 20a1.998 1.998 0 001.45-.62l.12-.13A4.898 4.898 0 0113 17a5 5 0 015-5c.69.005 1.372.155 2 .44l1.45-1.5zM17 14a1 1 0 00-1 1v2a1 1 0 00-.71 1.71l1 1A.998.998 0 0017 20a.84.84 0 00.38-.08A1 1 0 0018 19v-4a1 1 0 00-1-1zm4.71 1.29l-1-1a1 1 0 00-1.09-.21A1 1 0 0019 15v4a1 1 0 102 0v-2a.998.998 0 00.71-1.71z" fill="currentColor"></path></svg>